<svg xmlns="http://www.w3.org/2000/svg" class="header__logoSVG" role="img" aria-labelledby="homepageLogoTitle" viewBox="0 0 607.822 420.405" width="607.822" height="420.405" alt="QA Logo">
                        <title id="homepageLogoTitle">QA Homepage</title>
                      <g transform="translate(-117 -97.862)">
                        <path id="Path_582" fill="#003e50" d="M 573.98 114.11 a 8.144 8.144 0 0 0 -14.08 0 L 409.3 374.61 a 3.666 3.666 0 0 0 1.23 4.94 c 39.67 24.92 68.81 33.73 84.62 37.01 a 3.649 3.649 0 0 0 3.9 -1.76 l 62.52 -108.74 a 6.186 6.186 0 0 1 10.7 0 l 62.49 108.7 a 3.647 3.647 0 0 0 3.9 1.76 c 15.81 -3.28 44.77 -12.05 84.44 -36.97 a 3.666 3.666 0 0 0 1.23 -4.94 Z" data-name="Path 582"/>
                        <path id="Path_583" fill="#003e50" d="M 271.5 313.75 c -41.64 0 -73.61 -41.47 -56.84 -85.37 a 57.038 57.038 0 0 1 32.77 -32.82 c 43.91 -16.86 85.44 15.12 85.44 56.8 a 61.385 61.385 0 0 1 -61.37 61.39 M 479.13 438.61 c -12.86 -1.78 -46.06 -9.05 -92.9 -38.74 a 238.692 238.692 0 0 0 -31.01 -16.77 a 0.488 0.488 0 0 1 -0.06 -0.86 c 53.2 -34.31 83.94 -100.43 65.4 -171.47 A 150.849 150.849 0 0 0 310.2 102.56 C 208.1 77.78 117 154.44 117 252.36 A 154.5 154.5 0 0 0 255.69 406.05 a 0.5 0.5 0 0 1 0.38 0.74 l -20.39 35.56 a 4.493 4.493 0 0 0 4.01 6.73 c 19.17 -0.49 51.19 -1.34 100.99 30.2 c 54.62 34.61 87.16 38.39 94.07 38.89 c 1.84 0.14 4.75 0.6 6.67 -2.99 c 4.97 -8.91 40.58 -70.73 40.58 -70.73 a 3.926 3.926 0 0 0 -2.87 -5.84" data-name="Path 583"/>
                      </g>
                    </svg>